<!-- Generated by IcoMoon.io -->
<svg version="1.1" xmlns="http://www.w3.org/2000/svg" width="32" height="32" viewBox="0 0 32 32">
<title>uniEC4F</title>
<path d="M18 0q0 1.625 0.719 2.914t1.922 2.32q1.547 1.344 2.453 3.016t0.906 3.75h-2q0-1.625-0.719-2.914t-1.922-2.32q-0.375-0.313-0.711-0.656t-0.648-0.719v22.109q0 0.141-0.047 0.336t-0.109 0.398-0.148 0.391-0.148 0.313q-0.391 0.75-1 1.328t-1.344 0.961-1.563 0.578-1.641 0.195q-1.063 0-2.133-0.344t-1.93-0.984-1.398-1.57-0.539-2.102 0.539-2.102 1.398-1.57 1.93-0.984 2.133-0.344q1.078 0 2.109 0.32t1.891 0.977v-23.297h2zM12 30q0.641 0 1.344-0.188t1.297-0.563 0.977-0.938 0.383-1.313-0.383-1.313-0.977-0.938-1.297-0.563-1.344-0.188-1.344 0.188-1.297 0.563-0.977 0.938-0.383 1.313 0.383 1.313 0.977 0.938 1.297 0.563 1.344 0.188z"></path>
</svg>
