<!-- Generated by IcoMoon.io -->
<svg version="1.1" xmlns="http://www.w3.org/2000/svg" width="32" height="32" viewBox="0 0 32 32">
<title>uniE7F6</title>
<path d="M16 2q1.656 0 3.188 0.43t2.867 1.211 2.43 1.875 1.875 2.43 1.211 2.867 0.43 3.188v11q0 0.625-0.234 1.172t-0.641 0.953-0.953 0.641-1.172 0.234h-3v-12h3q0.516 0 1 0.172v-2.172q0-2.063-0.789-3.883t-2.148-3.18-3.18-2.148-3.883-0.789-3.883 0.789-3.18 2.148-2.148 3.18-0.789 3.883v2.172q0.484-0.172 1-0.172h3v12h-3q-0.625 0-1.172-0.234t-0.953-0.641-0.641-0.953-0.234-1.172v-11q0-1.656 0.43-3.188t1.211-2.867 1.875-2.43 2.43-1.875 2.867-1.211 3.188-0.43zM7 18q-0.406 0-0.703 0.297t-0.297 0.703v6q0 0.406 0.297 0.703t0.703 0.297h1v-8h-1zM25 26q0.406 0 0.703-0.297t0.297-0.703v-6q0-0.406-0.297-0.703t-0.703-0.297h-1v8h1z"></path>
</svg>
