<!-- Generated by IcoMoon.io -->
<svg version="1.1" xmlns="http://www.w3.org/2000/svg" width="32" height="32" viewBox="0 0 32 32">
<title>uniE189</title>
<path d="M10 18.5q0 0.797-0.344 1.445t-0.906 1.109-1.281 0.703-1.469 0.242-1.469-0.242-1.281-0.703-0.906-1.109-0.344-1.445 0.344-1.445 0.906-1.109 1.281-0.703 1.469-0.242q0.516 0 1.031 0.117t0.969 0.352v-13.469h2q0 1 0.445 1.797t1.195 1.438q1.094 0.938 1.727 2.117t0.633 2.648h-2q0-0.984-0.445-1.805t-1.195-1.43l-0.188-0.156t-0.172-0.156v12.047zM6 20q0.313 0 0.664-0.094t0.648-0.281 0.492-0.469 0.195-0.656-0.195-0.656-0.492-0.469-0.648-0.281-0.664-0.094-0.664 0.094-0.648 0.281-0.492 0.469-0.195 0.656 0.195 0.656 0.492 0.469 0.648 0.281 0.664 0.094zM30 24.5q0 0.797-0.344 1.445t-0.906 1.109-1.281 0.703-1.469 0.242-1.469-0.242-1.281-0.703-0.906-1.109-0.344-1.445 0.344-1.445 0.906-1.109 1.281-0.703 1.469-0.242q0.516 0 1.031 0.117t0.969 0.352v-10.438l-10 2.5v12.969q0 0.797-0.344 1.445t-0.906 1.109-1.281 0.703-1.469 0.242-1.469-0.242-1.281-0.703-0.906-1.109-0.344-1.445 0.344-1.445 0.906-1.109 1.281-0.703 1.469-0.242q0.516 0 1.031 0.117t0.969 0.352v-11.5l14-3.5v16.031zM14 28q0.313 0 0.664-0.094t0.648-0.281 0.492-0.469 0.195-0.656-0.195-0.656-0.492-0.469-0.648-0.281-0.664-0.094-0.664 0.094-0.648 0.281-0.492 0.469-0.195 0.656 0.195 0.656 0.492 0.469 0.648 0.281 0.664 0.094zM26 26q0.313 0 0.664-0.094t0.648-0.281 0.492-0.469 0.195-0.656-0.195-0.656-0.492-0.469-0.648-0.281-0.664-0.094-0.664 0.094-0.648 0.281-0.492 0.469-0.195 0.656 0.195 0.656 0.492 0.469 0.648 0.281 0.664 0.094z"></path>
</svg>
